<svg width="17" height="18" viewBox="0 0 17 18" fill="none" xmlns="http://www.w3.org/2000/svg">
<path opacity="0.8" d="M8.50002 0C7.56605 0 6.65305 0.276186 5.87649 0.793633C5.09992 1.31108 4.49466 2.04655 4.13725 2.90703C3.77984 3.76751 3.68632 4.71437 3.86853 5.62785C4.05074 6.54133 4.50048 7.38042 5.1609 8.03901C5.82131 8.69759 6.66273 9.1461 7.57876 9.3278C8.49478 9.5095 9.44426 9.41624 10.3071 9.05982C11.17 8.7034 11.9075 8.09981 12.4264 7.3254C12.9453 6.55099 13.2222 5.64052 13.2222 4.70914C13.2222 3.4602 12.7247 2.26241 11.8391 1.37928C10.9535 0.49614 9.75243 0 8.50002 0ZM8.50002 7.53463C7.93963 7.53463 7.39184 7.36891 6.9259 7.05845C6.45996 6.74798 6.0968 6.3067 5.88236 5.79041C5.66791 5.27412 5.6118 4.70601 5.72112 4.15792C5.83045 3.60983 6.1003 3.10637 6.49655 2.71122C6.89279 2.31607 7.39765 2.04697 7.94726 1.93795C8.49687 1.82893 9.06656 1.88488 9.58428 2.09873C10.102 2.31259 10.5445 2.67474 10.8558 3.13939C11.1672 3.60403 11.3333 4.15031 11.3333 4.70914C11.3333 5.45851 11.0348 6.17718 10.5035 6.70706C9.97213 7.23694 9.25146 7.53463 8.50002 7.53463ZM17 17.8947V16.9529C17 15.2044 16.3035 13.5275 15.0637 12.2911C13.8238 11.0547 12.1423 10.3601 10.3889 10.3601H6.61113C4.85775 10.3601 3.17619 11.0547 1.93636 12.2911C0.696541 13.5275 1.52588e-05 15.2044 1.52588e-05 16.9529V17.8947H1.8889V16.9529C1.8889 15.704 2.38642 14.5062 3.27201 13.623C4.1576 12.7399 5.35872 12.2438 6.61113 12.2438H10.3889C11.6413 12.2438 12.8424 12.7399 13.728 13.623C14.6136 14.5062 15.1111 15.704 15.1111 16.9529V17.8947H17Z" fill="#ffffff"/>
</svg>
